<?xml version="1.0" encoding="utf-8"?>
<!-- Generator: Adobe Illustrator 17.0.0, SVG Export Plug-In . SVG Version: 6.00 Build 0)  -->
<!DOCTYPE svg PUBLIC "-//W3C//DTD SVG 1.1//EN" "http://www.w3.org/Graphics/SVG/1.1/DTD/svg11.dtd">
<svg version="1.1" xmlns="http://www.w3.org/2000/svg" xmlns:xlink="http://www.w3.org/1999/xlink" x="0px" y="0px"
	 width="450.001px" height="270px" viewBox="0 0 450.001 270" enable-background="new 0 0 450.001 270" xml:space="preserve">
<g id="light">
	<g>
		<g>
			<g>
				<path d="M99.069,127.741c1.576,1.428,3.842,2.709,6.009,2.709c1.576,0,3.349-0.69,3.349-2.561c0-2.069-2.413-2.413-5.123-3.596
					c-3.054-1.33-5.615-2.955-5.615-6.847c0-5.073,4.088-7.241,9.161-7.241c2.758,0,5.714,0.64,7.832,2.019v0.591l-1.97,3.891
					c-1.379-1.034-3.251-1.724-5.32-1.724c-1.822,0-2.955,0.739-2.955,2.167c0,1.872,2.167,2.266,4.876,3.3
					c3.743,1.428,6.009,3.005,6.009,6.994c0,5.221-4.088,7.487-9.506,7.487c-3.448,0-6.206-0.936-8.817-2.906v-0.591L99.069,127.741
					z"/>
				<path d="M128.179,134.933c-8.029,0-11.279-5.566-11.279-12.511c0-6.846,3.005-12.215,10.935-12.215
					c7.635,0,10.344,4.926,10.344,11.329c0,0.739-0.197,2.069-0.493,2.857c-1.872,0-13.348-0.098-13.841-0.098
					c0.049,2.61,1.182,6.058,5.123,6.058c2.019,0,3.694-1.034,5.172-2.61l2.808,3.152v0.591
					C134.582,133.554,131.824,134.933,128.179,134.933z M127.834,115.034c-2.413,0-3.793,1.872-3.94,5.763
					c0.542,0,7.388-0.148,7.635-0.148C131.528,116.955,130.444,115.034,127.834,115.034z"/>
				<path d="M161.721,115.329v19.948c0,6.797-5.122,9.654-10.738,9.654c-3.152,0-6.551-0.837-9.211-2.413l1.773-4.384h0.591
					c1.773,1.182,3.99,1.97,6.108,1.97c2.906,0,4.531-1.478,4.531-4.039c0-0.394,0.148-2.66,0.246-4.039l-0.197-0.098
					c-1.675,1.527-3.694,2.955-6.452,2.955c-6.748,0-8.373-6.157-8.373-12.462c0-6.157,2.512-12.215,8.521-12.215
					c2.66,0,4.778,1.182,6.551,2.808l0.148-0.099l0.493-1.724l0.542-0.493l5.615,0.148
					C161.82,111.34,161.721,113.852,161.721,115.329z M154.825,117.299c-1.084-1.231-2.561-1.97-3.891-1.97
					c-3.3,0-3.694,4.433-3.694,7.093c0,2.906,0.148,7.782,3.251,7.782c1.379,0,3.103-1.133,4.236-2.561
					C154.727,127.15,154.825,117.841,154.825,117.299z"/>
				<path d="M191.274,134.292c0-0.443,0.197-15.072,0.197-15.515c0-2.463-0.64-3.399-2.167-3.399c-1.133,0-2.709,0.64-3.94,1.625
					c0,0.493,0,16.796,0,17.289h-6.797c0-0.443,0.099-15.072,0.099-15.515c0-2.463-0.591-3.399-2.019-3.399
					c-1.182,0-2.808,0.69-4.039,1.675l0.049,17.239h-6.994v-17.387c0-1.675-0.098-5.024-0.148-6.058l5.812-0.148l0.542,0.493
					l0.345,1.921l0.098,0.049c2.118-1.724,5.073-2.906,7.585-2.906c1.97,0,3.842,0.887,4.778,3.005
					c2.413-1.872,5.517-3.005,8.029-3.005c3.202,0,5.714,1.97,5.714,6.994c0,0.493-0.148,16.55-0.148,17.042H191.274z"/>
				<path d="M212.552,134.933c-8.029,0-11.279-5.566-11.279-12.511c0-6.846,3.005-12.215,10.935-12.215
					c7.635,0,10.344,4.926,10.344,11.329c0,0.739-0.197,2.069-0.493,2.857c-1.872,0-13.348-0.098-13.841-0.098
					c0.049,2.61,1.182,6.058,5.123,6.058c2.019,0,3.694-1.034,5.172-2.61l2.808,3.152v0.591
					C218.955,133.554,216.197,134.933,212.552,134.933z M212.207,115.034c-2.413,0-3.793,1.872-3.94,5.763
					c0.542,0,7.388-0.148,7.635-0.148C215.901,116.955,214.818,115.034,212.207,115.034z"/>
				<path d="M238.607,134.292c0-0.443,0.197-15.072,0.197-15.515c0-2.512-0.591-3.399-2.266-3.399c-1.231,0-3.005,0.788-4.335,1.675
					l0.049,17.239h-6.994v-17.387c0-1.724-0.098-5.024-0.148-6.058l5.812-0.148l0.542,0.493l0.345,1.921l0.099,0.049
					c2.216-1.625,5.418-2.906,8.028-2.906c3.3,0,5.812,1.97,5.812,6.994c0,0.493-0.148,16.55-0.148,17.042H238.607z"/>
				<path d="M257.423,134.292c-6.157,0-6.6-3.546-6.6-6.994c0-0.493,0-6.896,0.099-11.526c-1.527,0.049-2.512,0.049-3.004,0.049
					l0.049-4.975c0.493,0,1.428,0,2.955,0.049c-0.049-2.709-0.099-6.206-0.099-6.649l0.493-0.493h6.502c0,0.443,0,3.399-0.098,7.142
					c1.724-0.049,4.039-0.049,4.531-0.049l-0.098,4.975c-0.493,0-2.709,0-4.433-0.049c0.049,4.482,0.049,10.245,0.049,10.688
					c0,2.463,0.049,2.955,2.216,2.955h1.921l0.099,4.384l-0.493,0.493H257.423z"/>
			</g>
			<g>
				<path fill="#009A5B" d="M268.085,134.292c0-0.493,0.099-13.89,0.148-18.52c-1.33,0.049-2.709,0.049-3.103,0.049l0.049-4.975
					c0.394,0,1.724,0,3.005,0.049c0-0.197-0.099-4.285-0.099-4.433c0-5.566,3.251-7.635,7.487-7.635
					c1.822,0,3.694,0.296,5.566,1.084v0.739l-1.428,3.94c-0.788-0.443-1.675-0.69-2.463-0.69c-1.379,0-2.266,0.69-2.266,3.3
					c0,0.887,0.049,3.497,0.049,3.694c1.478-0.049,4.285-0.049,4.679-0.049l-0.049,4.975c-0.394,0-3.202,0-4.679-0.049
					c0.099,4.63,0.099,18.027,0.099,18.52H268.085z"/>
				<path fill="#009A5B" d="M295.668,134.292l-0.493-0.493l-0.591-1.872l-0.197-0.049c-2.118,1.921-4.482,3.054-7.388,3.054
					c-5.27,0-6.206-4.531-6.206-7.191c0-7.585,6.502-8.029,13.299-8.423v-1.527c0-2.167-1.428-2.709-3.152-2.709
					c-3.054,0-5.861,0.985-7.536,1.625l-1.527-3.94v-0.591c4.482-1.625,8.373-1.97,11.082-1.97c4.876,0,8.078,2.019,8.078,7.29
					v11.132c0,1.921,0.099,4.679,0.148,5.664H295.668z M294.141,123.013c-4.63,0.098-6.649,0.148-6.649,3.842
					c0,1.724,0.443,3.349,2.315,3.349c1.182,0,2.808-0.64,4.285-2.167c0-0.296,0.099-4.679,0.099-4.975L294.141,123.013z"/>
				<path fill="#009A5B" d="M320.147,134.292l-0.493-0.493l-0.591-1.97l-0.197-0.049c-2.61,2.463-5.32,3.152-8.029,3.152
					c-3.596,0-6.206-1.97-6.206-6.994c0-0.493,0.148-16.599,0.148-17.092h6.502l0.493,0.493c0,0.542-0.148,14.678-0.148,15.318
					c0,1.773,0.591,3.448,2.364,3.448c1.478,0,3.448-0.985,4.63-2.216l-0.099-17.042h6.502l0.493,0.493v17.289
					c0,1.921,0.099,4.679,0.148,5.664H320.147z"/>
				<path fill="#009A5B" d="M336.352,128.628c0,1.872,0.099,4.679,0.197,5.664h-6.994c-0.099-0.985-0.197-3.793-0.197-5.664V105.33
					c0-1.872-0.049-4.679-0.148-5.664l6.649-0.197l0.493,0.493V128.628z"/>
				<path fill="#009A5B" d="M348.174,134.292c-6.157,0-6.6-3.546-6.6-6.994c0-0.493,0-6.896,0.099-11.526
					c-1.527,0.049-2.512,0.049-3.004,0.049l0.049-4.975c0.493,0,1.428,0,2.955,0.049c-0.049-2.709-0.099-6.206-0.099-6.649
					l0.493-0.493h6.502c0,0.443,0,3.399-0.098,7.142c1.724-0.049,4.039-0.049,4.531-0.049l-0.098,4.975
					c-0.493,0-2.709,0-4.433-0.049c0.049,4.482,0.049,10.245,0.049,10.688c0,2.463,0.049,2.955,2.216,2.955h1.921l0.099,4.384
					l-0.493,0.493H348.174z"/>
			</g>
		</g>
		<g>
			<path fill="#9FA0A0" d="M106.484,161.796c-1.525-1.986-1.525-1.986-2.712-3.279c-0.886-0.958-1.382-1.49-1.524-1.632
				c-1.223,2.447-2.535,4.042-4.502,5.477c-0.23-0.442-0.39-0.656-0.745-0.957c1.454-0.975,2.482-1.968,3.332-3.244
				c0.621-0.939,1.082-1.913,1.471-3.155l1.188,0.266c-0.106,0.266-0.213,0.461-0.266,0.585c-0.035,0.105-0.053,0.124-0.071,0.176
				c0.248,0.249,0.389,0.373,0.532,0.514c1.506,1.4,2.286,2.198,4.236,4.379L106.484,161.796z M104.02,161.406
				c0.603,0,0.939-0.017,1.365-0.071c-0.035,0.301-0.072,0.903-0.124,2.25c-0.018,0.675-0.106,1.383-0.195,1.844
				c-0.177,0.975-0.585,1.241-1.826,1.241c-0.319,0-0.744-0.036-1.241-0.107c-0.017-0.39-0.053-0.603-0.195-1.064
				c0.691,0.124,1.011,0.16,1.436,0.16c0.798,0,0.922-0.409,0.975-3.298h-4.042v6.506c0,0.318,0.053,0.461,0.195,0.549
				c0.142,0.071,0.266,0.105,0.638,0.142c0.39,0.036,1.205,0.071,1.471,0.071c1.365,0,2.428-0.124,2.642-0.337
				c0.319-0.266,0.425-0.798,0.496-2.34c0.284,0.195,0.603,0.337,1.134,0.496c-0.088,1.348-0.301,2.127-0.673,2.571
				c-0.248,0.301-0.532,0.444-1.064,0.532c-0.372,0.071-1.613,0.124-2.623,0.124c-1.525,0-2.233-0.071-2.73-0.285
				c-0.426-0.176-0.567-0.478-0.567-1.186v-6.47c0-0.549-0.018-0.975-0.053-1.4c0.373,0.053,0.674,0.071,1.223,0.071H104.02z
				 M109.213,156.461c-0.088,0.442-0.106,0.939-0.106,1.932v6.787c0,1.205,0.018,1.525,0.089,1.986h-1.294
				c0.071-0.496,0.089-0.851,0.089-1.986v-6.787c0-0.939-0.035-1.454-0.107-1.932H109.213z M112.794,155.307
				c-0.089,0.497-0.124,1.134-0.124,2.146V169.4c0,1.24-0.39,1.559-1.861,1.559c-0.443,0-1.028-0.017-2.003-0.071
				c-0.089-0.514-0.142-0.71-0.319-1.134c0.957,0.124,1.63,0.178,2.269,0.178c0.655,0,0.78-0.09,0.78-0.551v-11.946
				c0-0.957-0.035-1.63-0.124-2.127H112.794z"/>
			<path fill="#9FA0A0" d="M126.615,163.001h-1.187c-0.603,0-0.887,0.017-1.294,0.088v-1.152c0.389,0.071,0.673,0.088,1.365,0.088
				h0.939c0.567,0,0.886-0.017,1.329-0.088c-0.071,0.532-0.089,0.993-0.089,1.79v3.935c0.106,0.088,0.195,0.195,0.355,0.389
				c0.638,0.727,1.063,1.046,1.808,1.278c0.673,0.212,2.144,0.318,4.324,0.318c2.57,0,4.556-0.105,6.098-0.318
				c-0.283,0.637-0.301,0.725-0.426,1.293c-1.719,0.088-3.633,0.124-6.097,0.124c-1.117,0-2.553-0.09-3.315-0.195
				c-0.815-0.107-1.453-0.337-2.074-0.763c-0.301-0.212-0.301-0.212-0.957-0.991c-0.142-0.16-0.337-0.266-0.496-0.266
				c-0.426,0-1.418,0.957-2.322,2.233l-0.78-0.903c0.78-0.834,1.453-1.49,1.86-1.773c0.461-0.337,0.727-0.496,0.957-0.585V163.001z
				 M125.25,155.485c1.205,1.1,1.932,1.897,2.889,3.155l-0.922,0.798c-0.957-1.4-1.613-2.162-2.782-3.243L125.25,155.485z
				 M130.851,158.569c-0.408,0.744-0.603,1.01-1.205,1.773c-0.266-0.266-0.496-0.408-0.939-0.603
				c1.01-1.134,1.613-2.127,2.074-3.403c0.124-0.373,0.177-0.568,0.23-0.905l1.152,0.337c-0.035,0.071-0.071,0.124-0.088,0.16
				c-0.106,0.212-0.106,0.212-0.301,0.727c-0.142,0.337-0.337,0.762-0.426,0.939h2.34v-0.621c0-0.92-0.017-1.381-0.106-1.825h1.276
				c-0.089,0.408-0.106,0.868-0.106,1.825v0.621h2.552c0.833,0,1.259-0.019,1.684-0.107v1.152c-0.478-0.052-0.922-0.071-1.666-0.071
				h-2.57v2.376h3.314c0.798,0,1.223-0.017,1.613-0.088v1.152c-0.532-0.053-1.028-0.088-1.613-0.088h-7.852
				c-0.567,0-1.081,0.035-1.577,0.088v-1.152c0.389,0.071,0.833,0.088,1.613,0.088h3.439v-2.376H130.851z M131.826,168.034
				c-0.798,0-1.205,0.017-1.772,0.088c0.053-0.408,0.071-0.655,0.071-1.701v-1.488c0-0.887-0.017-1.224-0.071-1.595
				c0.55,0.071,0.993,0.088,1.879,0.088h4.644c0.868,0,1.347-0.017,1.897-0.088c-0.053,0.425-0.072,0.691-0.072,1.72v1.347
				c0,1.045,0,1.276,0.072,1.718c-0.55-0.071-1.064-0.088-1.861-0.088H131.826z M131.188,167.041h6.115v-2.623h-6.115V167.041z"/>
			<path fill="#9FA0A0" d="M153.393,158.942c-0.089,4.235-0.266,6.399-0.691,8.312c-0.319,1.507-0.673,2.5-1.347,3.812
				c-0.337-0.444-0.567-0.656-0.922-0.905c1.4-2.447,1.879-5.655,1.879-12.513c0-0.993-0.018-1.454-0.089-2.022
				c0.673,0.053,1.205,0.071,2.163,0.071h9.341c0.886,0,1.347-0.017,1.86-0.071c-0.035,0.408-0.053,0.727-0.053,1.188v1.027
				c0,0.461,0.017,0.746,0.053,1.153c-0.549-0.036-1.027-0.053-1.772-0.053H153.393z M164.471,158.037v-1.418h-11.078v1.418H164.471
				z M160.129,168.212c0.744-0.071,1.525-0.178,2.109-0.283c-0.266-0.249-0.39-0.373-0.709-0.656l0.727-0.478
				c0.744,0.637,1.4,1.381,2.074,2.303l-0.78,0.585c-0.266-0.461-0.425-0.691-0.709-1.064c-0.39,0.071-0.461,0.088-1.116,0.195
				c-1.134,0.212-3.598,0.496-5.283,0.603c-0.354,0.017-0.532,0.053-0.709,0.088l-0.195-1.064c0.301,0.036,0.496,0.036,0.957,0.036
				c0.727,0,0.727,0,2.641-0.16v-1.666h-4.147v2.837c0,0.78,0.017,1.205,0.071,1.666h-1.241c0.071-0.568,0.088-1.081,0.088-1.773
				v-2.215c0-0.762-0.017-1.134-0.053-1.471c0.461,0.053,0.85,0.071,1.702,0.071h3.58v-1.064h-3.031c-0.762,0-0.975,0-1.418,0.053
				c0.035-0.408,0.053-0.656,0.053-1.064v-0.957c0-0.568,0-0.639-0.053-1.081c0.408,0.052,0.62,0.052,1.471,0.052h2.978v-1.064
				c-1.17,0.09-2.871,0.178-4.378,0.195c-0.124-0.354-0.213-0.532-0.443-0.886c0.478,0.017,0.904,0.017,1.116,0.017
				c3.066,0,6.913-0.39,8.26-0.815l0.762,0.815c-1.896,0.337-2.764,0.461-4.324,0.603v1.134h3.368c0.727,0,1.028-0.017,1.436-0.052
				c-0.053,0.442-0.053,0.513-0.053,1.098v0.939c0,0.568,0,0.71,0.053,1.064c-0.443-0.053-0.673-0.053-1.436-0.053h-3.368v1.064
				h4.183c0.798,0,1.223-0.017,1.702-0.071c-0.053,0.444-0.071,0.905-0.071,1.613v2.464c0,0.478-0.089,0.763-0.301,0.975
				c-0.248,0.249-0.567,0.319-1.436,0.319c-0.478,0-0.939-0.019-1.648-0.053c-0.035-0.408-0.089-0.639-0.213-1.029
				c0.745,0.107,1.294,0.143,1.95,0.143c0.46,0,0.585-0.107,0.585-0.497v-2.978h-4.75V168.212z M159.136,162.523h-3.368v1.364h3.368
				V162.523z M160.129,163.887h3.704v-1.364h-3.704V163.887z"/>
			<path fill="#9FA0A0" d="M186.074,161.601h4.715c0.815,0,1.577-0.053,2.074-0.124v1.347c-0.655-0.088-1.311-0.124-2.074-0.124
				h-4.715v6.753c0,1.224-0.337,1.454-2.074,1.454c-0.674,0-1.17-0.035-1.95-0.105c-0.053-0.461-0.142-0.851-0.283-1.224
				c0.939,0.142,1.79,0.231,2.41,0.231c0.585,0,0.691-0.071,0.691-0.532v-6.577h-5.247c-0.709,0-1.329,0.036-2.003,0.124v-1.347
				c0.762,0.088,1.241,0.124,2.003,0.124h5.247v-4.556h-4.254c-0.868,0-1.4,0.019-1.897,0.09v-1.295
				c0.461,0.071,1.028,0.107,1.897,0.107h9.252c0.887,0,1.4-0.036,1.879-0.107v1.295c-0.496-0.053-1.046-0.09-1.879-0.09h-3.793
				V161.601z"/>
			<path fill="#9FA0A0" d="M215.157,162.186h2.535c0.78,0,1.364-0.036,1.843-0.107v1.293c-0.496-0.071-1.082-0.105-1.843-0.105
				h-2.535v5.37c0,0.939,0.035,1.471,0.124,2.11h-1.418c0.089-0.62,0.124-1.205,0.124-2.093v-5.387h-4.29
				c-0.053,1.718-0.372,3.066-0.975,4.201c-0.727,1.329-1.755,2.233-3.74,3.296c-0.249-0.444-0.479-0.744-0.816-1.046
				c3.191-1.506,4.272-3.101,4.396-6.451h-2.552c-0.727,0-1.277,0.035-1.809,0.105v-1.293c0.479,0.071,1.064,0.107,1.826,0.107h2.57
				c0-0.09,0-0.09,0-0.302v-4.235h-1.719c-0.78,0-1.329,0.035-1.826,0.105v-1.293c0.478,0.071,1.064,0.105,1.808,0.105h10.032
				c0.744,0,1.329-0.035,1.825-0.105v1.293c-0.514-0.071-1.027-0.105-1.825-0.105h-1.737V162.186z M209.733,157.648v4.289
				c0,0.212,0,0.212,0,0.249h4.254v-4.538H209.733z"/>
			<path fill="#9FA0A0" d="M244.151,162.452c-0.124,0.176-0.212,0.337-0.514,0.957c-0.762,1.525-1.702,2.871-2.8,3.988
				c1.665,1.186,3.314,1.932,5.654,2.552c-0.372,0.408-0.514,0.62-0.744,1.117c-2.251-0.763-4.113-1.702-5.743-2.925
				c-1.365,1.098-2.854,1.825-5.991,2.925c-0.195-0.461-0.337-0.675-0.709-1.082c1.577-0.425,3.102-0.991,4.218-1.576
				c0.55-0.285,0.975-0.549,1.577-1.01c-1.241-1.1-2.233-2.34-2.959-3.759c-0.372,1.01-0.887,2.039-1.595,3.12
				c-0.975,1.525-1.986,2.659-3.457,3.864c-0.23-0.407-0.46-0.673-0.868-1.01c1.099-0.744,1.631-1.224,2.499-2.251
				c1.666-1.967,2.659-4.254,3.28-7.551h-2.642c-0.957,0.053-1.542,0.088-1.737,0.088c0.798-1.896,1.099-2.889,1.383-4.643
				l1.222,0.176c-0.301,1.082-0.62,2.093-1.081,3.332h3.031c0.142-0.974,0.283-2.623,0.283-3.172c0-0.16,0-0.285-0.035-0.532
				l1.365,0.105c-0.089,0.319-0.089,0.319-0.177,1.029c-0.106,1.01-0.16,1.542-0.301,2.569h7.001c0.798,0,1.365-0.035,1.86-0.105
				v1.276c-0.408-0.071-0.939-0.107-1.86-0.107l-7.178-0.017c-0.124,0.78-0.213,1.188-0.426,2.003h5.228
				c0.78,0,1.206-0.017,1.578-0.088L244.151,162.452z M236.883,162.823c0.673,1.471,1.648,2.712,3.048,3.881
				c1.134-1.045,1.95-2.233,2.694-3.881H236.883z M243.76,158.339c-0.85-1.1-1.525-1.72-2.641-2.464l0.798-0.673
				c1.116,0.762,1.631,1.222,2.694,2.357L243.76,158.339z"/>
			<path fill="#9FA0A0" d="M266.373,160.537c1.986-1.49,3.793-3.386,4.467-4.698l1.046,0.692c-0.212,0.23-0.319,0.354-0.549,0.637
				c-0.993,1.205-1.79,1.986-3.439,3.369h2.907c0.904,0,1.418-0.036,1.897-0.107v1.224c-0.567-0.072-1.188-0.107-1.95-0.107h-4.183
				c-1.134,0.815-1.861,1.276-2.853,1.879c0.124,0,0.124,0,0.337-0.017c0.425,0,1.099-0.017,1.506-0.017h3.048
				c0.851,0,1.311-0.019,1.932-0.071c-0.071,0.513-0.071,0.92-0.071,1.949v3.97c0,0.887,0.017,1.347,0.089,1.827h-1.223v-0.834
				h-7.321v0.834h-1.241c0.071-0.532,0.106-1.029,0.106-1.827v-3.013c0-0.39,0-0.815,0.018-1.276
				c-0.85,0.461-2.003,0.975-3.474,1.578c-0.195-0.39-0.372-0.675-0.691-1.012c3.208-1.081,5.282-2.091,8.171-3.97h-5.725
				c-0.798,0-1.383,0.035-1.95,0.107v-1.224c0.426,0.071,0.975,0.107,1.967,0.107h4.467v-2.215h-2.854
				c-0.904,0-1.382,0.017-1.914,0.088v-1.171c0.426,0.071,0.975,0.107,1.932,0.107h2.836v-0.62c0-0.763-0.035-1.171-0.106-1.685
				h1.329c-0.089,0.444-0.107,0.887-0.107,1.685v0.62h1.649c0.939,0,1.488-0.036,1.949-0.107v1.171
				c-0.478-0.071-0.939-0.088-1.897-0.088h-1.702v2.215H266.373z M262.013,166.226h7.338v-1.879h-7.338V166.226z M262.013,169.275
				h7.338v-2.093h-7.338V169.275z"/>
			<path fill="#9FA0A0" d="M288.366,157.825c0.886-0.017,1.4-0.035,1.559-0.053c-0.035,0.461-0.053,0.922-0.053,1.561v9.022
				c0,0.798,0.035,1.4,0.088,1.825h-1.17v-1.134h-3.456v1.561h-1.188c0.071-0.461,0.089-1.117,0.089-2.163v-8.985
				c0-0.834-0.018-1.241-0.071-1.685c0.372,0.036,0.691,0.053,1.577,0.053h0.355c0.354-0.868,0.62-1.754,0.762-2.676l1.259,0.249
				c-0.319,0.957-0.638,1.842-0.904,2.428H288.366z M285.335,162.752h3.456V158.8h-3.456V162.752z M285.335,168.051h3.456v-4.324
				h-3.456V168.051z M297.583,157.807c0.709,0,1.205-0.017,1.56-0.071c-0.053,0.319-0.053,0.461-0.072,1.117
				c-0.159,7.019-0.389,9.393-1.027,10.812c-0.355,0.815-0.922,1.134-1.986,1.134c-0.638,0-1.152-0.036-2.251-0.124
				c-0.035-0.514-0.106-0.815-0.301-1.259c1.081,0.212,1.879,0.301,2.517,0.301c0.656,0,0.887-0.159,1.117-0.725
				c0.301-0.817,0.531-2.517,0.655-4.893c0.089-1.418,0.106-2.64,0.124-5.246h-5.105c-0.603,1.222-1.117,2.037-2.038,3.225
				c-0.23-0.302-0.55-0.603-0.851-0.798c1.082-1.152,1.95-2.659,2.605-4.467c0.249-0.673,0.426-1.329,0.461-1.72l1.223,0.231
				c-0.053,0.105-0.142,0.354-0.249,0.673c-0.212,0.62-0.389,1.098-0.673,1.808H297.583z M294.764,166.156
				c-0.992-2.127-1.666-3.244-2.694-4.484l0.904-0.549c1.116,1.347,1.861,2.516,2.801,4.413L294.764,166.156z"/>
			<path fill="#9FA0A0" d="M310.571,158.073c0-0.71,0-0.993-0.053-1.702c0.372,0.036,0.868,0.053,1.613,0.053h1.914
				c0.762,0,1.206-0.017,1.613-0.053c-0.035,0.407-0.053,0.834-0.053,1.649v9.855c0,0.62,0.018,0.974,0.071,1.542h-1.152v-1.01
				h-2.854v1.666h-1.187c0.071-0.603,0.088-1.134,0.088-1.879V158.073z M311.67,161.689h2.854v-4.272h-2.854V161.689z
				 M311.67,167.414h2.854v-4.733h-2.854V167.414z M323.776,169.222c0,1.169-0.372,1.454-1.949,1.454
				c-0.727,0-1.348-0.036-2.163-0.107c-0.053-0.496-0.142-0.762-0.337-1.205c1.081,0.159,1.595,0.212,2.428,0.212
				c0.726,0,0.886-0.071,0.886-0.461v-8.756h-4.431c-0.726,0-1.418,0.036-1.879,0.107v-1.241c0.461,0.071,1.099,0.107,1.843,0.107
				h4.467v-2.039c0-0.832-0.035-1.559-0.124-2.074h1.365c-0.071,0.603-0.106,1.205-0.106,2.074v2.039h0.567
				c0.727,0,1.241-0.036,1.702-0.107v1.205c-0.549-0.053-1.116-0.071-1.683-0.071h-0.585V169.222z M317.98,161.972
				c1.188,1.419,1.809,2.305,2.642,3.83l-0.975,0.708c-0.762-1.595-1.488-2.694-2.552-3.952L317.98,161.972z"/>
			<path fill="#9FA0A0" d="M339.175,163.391c0-0.834,0.017-1.436,0.071-2.198c-0.673,1.152-1.099,1.666-2.304,2.852
				c-0.337-0.603-0.39-0.655-0.744-0.991c1.79-1.649,3.048-3.403,3.988-5.567c0.372-0.868,0.656-1.737,0.762-2.374l1.241,0.442
				c-0.16,0.39-0.16,0.39-0.407,1.029c-0.355,0.939-0.939,2.108-1.471,3.048v9.431c0,0.832,0.035,1.471,0.124,2.108h-1.383
				c0.089-0.603,0.124-1.169,0.124-2.162V163.391z M343.092,161.494c-0.744,0.071-1.223,0.142-1.754,0.266l-0.071-1.276
				c0.159,0.017,0.23,0.017,0.354,0.017c0.39,0,0.887-0.035,1.436-0.088l2.304-0.23c-0.106-0.887-0.195-2.163-0.212-3.103
				c-0.018-0.78-0.053-1.259-0.124-1.613l1.365-0.017c-0.071,0.337-0.089,0.637-0.089,1.169c0,0.975,0.089,2.251,0.23,3.439
				l4.165-0.426c1.011-0.105,1.365-0.159,1.79-0.283l0.106,1.276c-0.16,0-0.23,0-0.319,0c-0.337,0-0.851,0.036-1.454,0.088
				l-4.147,0.426c0.425,2.783,1.116,4.767,2.233,6.452c0.815,1.223,1.702,2.091,2.144,2.091c0.23,0,0.355-0.142,0.496-0.585
				c0.16-0.496,0.283-1.293,0.408-2.34c0.443,0.39,0.709,0.585,1.045,0.762c-0.408,2.571-0.904,3.476-1.86,3.476
				c-1.206,0-2.996-1.932-4.184-4.467c-0.656-1.436-1.134-3.156-1.453-5.283L343.092,161.494z M348.392,155.485
				c1.134,0.886,1.737,1.436,2.854,2.605l-0.851,0.815c-0.727-0.939-1.648-1.842-2.765-2.747L348.392,155.485z"/>
		</g>
	</g>
</g>
<g id="dark">
	<rect x="0" y="292" width="450.001" height="270"/>
	<g>
		<g>
			<g>
				<path fill="#FFFFFF" d="M99.069,419.741c1.576,1.428,3.842,2.709,6.009,2.709c1.576,0,3.349-0.69,3.349-2.561
					c0-2.069-2.413-2.413-5.123-3.596c-3.054-1.33-5.615-2.955-5.615-6.847c0-5.073,4.088-7.241,9.161-7.241
					c2.758,0,5.714,0.64,7.832,2.019v0.591l-1.97,3.891c-1.379-1.034-3.251-1.724-5.32-1.724c-1.822,0-2.955,0.739-2.955,2.167
					c0,1.872,2.167,2.266,4.876,3.3c3.743,1.428,6.009,3.005,6.009,6.994c0,5.221-4.088,7.487-9.506,7.487
					c-3.448,0-6.206-0.936-8.817-2.906v-0.591L99.069,419.741z"/>
				<path fill="#FFFFFF" d="M128.179,426.933c-8.029,0-11.279-5.566-11.279-12.511c0-6.847,3.005-12.215,10.935-12.215
					c7.635,0,10.344,4.926,10.344,11.329c0,0.739-0.197,2.069-0.493,2.857c-1.872,0-13.348-0.098-13.841-0.098
					c0.049,2.61,1.182,6.058,5.123,6.058c2.019,0,3.694-1.034,5.172-2.61l2.808,3.152v0.591
					C134.582,425.554,131.824,426.933,128.179,426.933z M127.834,407.034c-2.413,0-3.793,1.872-3.94,5.763
					c0.542,0,7.388-0.148,7.635-0.148C131.528,408.955,130.444,407.034,127.834,407.034z"/>
				<path fill="#FFFFFF" d="M161.721,407.329v19.948c0,6.797-5.122,9.654-10.738,9.654c-3.152,0-6.551-0.837-9.211-2.413
					l1.773-4.384h0.591c1.773,1.182,3.99,1.97,6.108,1.97c2.906,0,4.531-1.478,4.531-4.039c0-0.394,0.148-2.66,0.246-4.039
					l-0.197-0.098c-1.675,1.527-3.694,2.955-6.452,2.955c-6.748,0-8.373-6.157-8.373-12.462c0-6.157,2.512-12.215,8.521-12.215
					c2.66,0,4.778,1.182,6.551,2.808l0.148-0.099l0.493-1.724l0.542-0.493l5.615,0.148
					C161.82,403.34,161.721,405.852,161.721,407.329z M154.825,409.299c-1.084-1.231-2.561-1.97-3.891-1.97
					c-3.3,0-3.694,4.433-3.694,7.093c0,2.906,0.148,7.782,3.251,7.782c1.379,0,3.103-1.133,4.236-2.561
					C154.727,419.15,154.825,409.841,154.825,409.299z"/>
				<path fill="#FFFFFF" d="M191.274,426.292c0-0.443,0.197-15.072,0.197-15.515c0-2.463-0.64-3.399-2.167-3.399
					c-1.133,0-2.709,0.64-3.94,1.625c0,0.493,0,16.796,0,17.289h-6.797c0-0.443,0.099-15.072,0.099-15.515
					c0-2.463-0.591-3.399-2.019-3.399c-1.182,0-2.808,0.69-4.039,1.675l0.049,17.239h-6.994v-17.387
					c0-1.675-0.098-5.024-0.148-6.058l5.812-0.148l0.542,0.493l0.345,1.921l0.098,0.049c2.118-1.724,5.073-2.906,7.585-2.906
					c1.97,0,3.842,0.887,4.778,3.005c2.413-1.872,5.517-3.005,8.029-3.005c3.202,0,5.714,1.97,5.714,6.994
					c0,0.492-0.148,16.55-0.148,17.042H191.274z"/>
				<path fill="#FFFFFF" d="M212.552,426.933c-8.029,0-11.279-5.566-11.279-12.511c0-6.847,3.005-12.215,10.935-12.215
					c7.635,0,10.344,4.926,10.344,11.329c0,0.739-0.197,2.069-0.493,2.857c-1.872,0-13.348-0.098-13.841-0.098
					c0.049,2.61,1.182,6.058,5.123,6.058c2.019,0,3.694-1.034,5.172-2.61l2.808,3.152v0.591
					C218.955,425.554,216.197,426.933,212.552,426.933z M212.207,407.034c-2.413,0-3.793,1.872-3.94,5.763
					c0.542,0,7.388-0.148,7.635-0.148C215.901,408.955,214.818,407.034,212.207,407.034z"/>
				<path fill="#FFFFFF" d="M238.607,426.292c0-0.443,0.197-15.072,0.197-15.515c0-2.512-0.591-3.399-2.266-3.399
					c-1.231,0-3.005,0.788-4.335,1.675l0.049,17.239h-6.994v-17.387c0-1.724-0.098-5.024-0.148-6.058l5.812-0.148l0.542,0.493
					l0.345,1.921l0.099,0.049c2.216-1.625,5.418-2.906,8.028-2.906c3.3,0,5.812,1.97,5.812,6.994c0,0.492-0.148,16.55-0.148,17.042
					H238.607z"/>
				<path fill="#FFFFFF" d="M257.423,426.292c-6.157,0-6.6-3.546-6.6-6.994c0-0.493,0-6.896,0.099-11.526
					c-1.527,0.049-2.512,0.049-3.004,0.049l0.049-4.975c0.493,0,1.428,0,2.955,0.049c-0.049-2.709-0.099-6.206-0.099-6.649
					l0.493-0.493h6.502c0,0.443,0,3.399-0.098,7.142c1.724-0.049,4.039-0.049,4.531-0.049l-0.098,4.975
					c-0.493,0-2.709,0-4.433-0.049c0.049,4.482,0.049,10.245,0.049,10.688c0,2.463,0.049,2.955,2.216,2.955h1.921l0.099,4.384
					l-0.493,0.493H257.423z"/>
			</g>
			<g>
				<path fill="#009A5B" d="M268.085,426.292c0-0.493,0.099-13.89,0.148-18.52c-1.33,0.049-2.709,0.049-3.103,0.049l0.049-4.975
					c0.394,0,1.724,0,3.005,0.049c0-0.197-0.099-4.285-0.099-4.433c0-5.566,3.251-7.635,7.487-7.635
					c1.822,0,3.694,0.296,5.566,1.084v0.739l-1.428,3.94c-0.788-0.443-1.675-0.69-2.463-0.69c-1.379,0-2.266,0.69-2.266,3.3
					c0,0.887,0.049,3.497,0.049,3.694c1.478-0.049,4.285-0.049,4.679-0.049l-0.049,4.975c-0.394,0-3.202,0-4.679-0.049
					c0.099,4.63,0.099,18.027,0.099,18.52H268.085z"/>
				<path fill="#009A5B" d="M295.668,426.292l-0.493-0.493l-0.591-1.872l-0.197-0.049c-2.118,1.921-4.482,3.054-7.388,3.054
					c-5.27,0-6.206-4.531-6.206-7.191c0-7.585,6.502-8.029,13.299-8.423v-1.527c0-2.167-1.428-2.709-3.152-2.709
					c-3.054,0-5.861,0.985-7.536,1.625l-1.527-3.94v-0.591c4.482-1.625,8.373-1.97,11.082-1.97c4.876,0,8.078,2.019,8.078,7.29
					v11.132c0,1.921,0.099,4.679,0.148,5.664H295.668z M294.141,415.013c-4.63,0.098-6.649,0.148-6.649,3.842
					c0,1.724,0.443,3.349,2.315,3.349c1.182,0,2.808-0.64,4.285-2.167c0-0.296,0.099-4.679,0.099-4.975L294.141,415.013z"/>
				<path fill="#009A5B" d="M320.147,426.292l-0.493-0.493l-0.591-1.97l-0.197-0.049c-2.61,2.463-5.32,3.152-8.029,3.152
					c-3.596,0-6.206-1.97-6.206-6.994c0-0.493,0.148-16.599,0.148-17.092h6.502l0.493,0.493c0,0.542-0.148,14.678-0.148,15.318
					c0,1.773,0.591,3.448,2.364,3.448c1.478,0,3.448-0.985,4.63-2.216l-0.099-17.042h6.502l0.493,0.493v17.289
					c0,1.921,0.099,4.679,0.148,5.664H320.147z"/>
				<path fill="#009A5B" d="M336.352,420.628c0,1.872,0.099,4.679,0.197,5.664h-6.994c-0.099-0.985-0.197-3.793-0.197-5.664V397.33
					c0-1.872-0.049-4.679-0.148-5.664l6.649-0.197l0.493,0.493V420.628z"/>
				<path fill="#009A5B" d="M348.174,426.292c-6.157,0-6.6-3.546-6.6-6.994c0-0.493,0-6.896,0.099-11.526
					c-1.527,0.049-2.512,0.049-3.004,0.049l0.049-4.975c0.493,0,1.428,0,2.955,0.049c-0.049-2.709-0.099-6.206-0.099-6.649
					l0.493-0.493h6.502c0,0.443,0,3.399-0.098,7.142c1.724-0.049,4.039-0.049,4.531-0.049l-0.098,4.975
					c-0.493,0-2.709,0-4.433-0.049c0.049,4.482,0.049,10.245,0.049,10.688c0,2.463,0.049,2.955,2.216,2.955h1.921l0.099,4.384
					l-0.493,0.493H348.174z"/>
			</g>
		</g>
		<g>
			<path fill="#9FA0A0" d="M106.484,453.796c-1.525-1.986-1.525-1.986-2.712-3.279c-0.886-0.958-1.382-1.49-1.524-1.632
				c-1.223,2.447-2.535,4.042-4.502,5.477c-0.23-0.442-0.39-0.656-0.745-0.957c1.454-0.975,2.482-1.968,3.332-3.244
				c0.621-0.939,1.082-1.913,1.471-3.155l1.188,0.266c-0.106,0.266-0.213,0.461-0.266,0.585c-0.035,0.105-0.053,0.124-0.071,0.176
				c0.248,0.249,0.389,0.373,0.532,0.514c1.506,1.4,2.286,2.198,4.236,4.379L106.484,453.796z M104.02,453.406
				c0.603,0,0.939-0.017,1.365-0.071c-0.035,0.301-0.072,0.903-0.124,2.25c-0.018,0.675-0.106,1.383-0.195,1.844
				c-0.177,0.975-0.585,1.241-1.826,1.241c-0.319,0-0.744-0.036-1.241-0.107c-0.017-0.39-0.053-0.603-0.195-1.064
				c0.691,0.124,1.011,0.16,1.436,0.16c0.798,0,0.922-0.409,0.975-3.298h-4.042v6.506c0,0.318,0.053,0.461,0.195,0.549
				c0.142,0.071,0.266,0.105,0.638,0.142c0.39,0.036,1.205,0.071,1.471,0.071c1.365,0,2.428-0.124,2.642-0.337
				c0.319-0.266,0.425-0.798,0.496-2.34c0.284,0.195,0.603,0.337,1.134,0.496c-0.088,1.348-0.301,2.127-0.673,2.571
				c-0.248,0.301-0.532,0.444-1.064,0.532c-0.372,0.071-1.613,0.124-2.623,0.124c-1.525,0-2.233-0.071-2.73-0.285
				c-0.426-0.176-0.567-0.478-0.567-1.186v-6.47c0-0.549-0.018-0.975-0.053-1.4c0.373,0.053,0.674,0.071,1.223,0.071H104.02z
				 M109.213,448.461c-0.088,0.442-0.106,0.939-0.106,1.932v6.787c0,1.205,0.018,1.525,0.089,1.986h-1.294
				c0.071-0.496,0.089-0.851,0.089-1.986v-6.787c0-0.939-0.035-1.454-0.107-1.932H109.213z M112.794,447.307
				c-0.089,0.497-0.124,1.134-0.124,2.146V461.4c0,1.24-0.39,1.559-1.861,1.559c-0.443,0-1.028-0.017-2.003-0.071
				c-0.089-0.514-0.142-0.71-0.319-1.134c0.957,0.124,1.63,0.178,2.269,0.178c0.655,0,0.78-0.09,0.78-0.551v-11.946
				c0-0.957-0.035-1.63-0.124-2.127H112.794z"/>
			<path fill="#9FA0A0" d="M126.615,455.001h-1.187c-0.603,0-0.887,0.017-1.294,0.088v-1.152c0.389,0.071,0.673,0.088,1.365,0.088
				h0.939c0.567,0,0.886-0.017,1.329-0.088c-0.071,0.532-0.089,0.993-0.089,1.79v3.935c0.106,0.088,0.195,0.195,0.355,0.389
				c0.638,0.727,1.063,1.046,1.808,1.278c0.673,0.212,2.144,0.318,4.324,0.318c2.57,0,4.556-0.105,6.098-0.318
				c-0.283,0.637-0.301,0.725-0.426,1.293c-1.719,0.088-3.633,0.124-6.097,0.124c-1.117,0-2.553-0.09-3.315-0.195
				c-0.815-0.107-1.453-0.337-2.074-0.763c-0.301-0.212-0.301-0.212-0.957-0.991c-0.142-0.16-0.337-0.266-0.496-0.266
				c-0.426,0-1.418,0.957-2.322,2.233l-0.78-0.903c0.78-0.834,1.453-1.49,1.86-1.773c0.461-0.337,0.727-0.496,0.957-0.585V455.001z
				 M125.25,447.485c1.205,1.1,1.932,1.897,2.889,3.155l-0.922,0.798c-0.957-1.4-1.613-2.162-2.782-3.243L125.25,447.485z
				 M130.851,450.569c-0.408,0.744-0.603,1.01-1.205,1.773c-0.266-0.266-0.496-0.408-0.939-0.603
				c1.01-1.134,1.613-2.127,2.074-3.403c0.124-0.373,0.177-0.568,0.23-0.905l1.152,0.337c-0.035,0.071-0.071,0.124-0.088,0.16
				c-0.106,0.212-0.106,0.212-0.301,0.727c-0.142,0.337-0.337,0.762-0.426,0.939h2.34v-0.621c0-0.92-0.017-1.381-0.106-1.825h1.276
				c-0.089,0.408-0.106,0.868-0.106,1.825v0.621h2.552c0.833,0,1.259-0.019,1.684-0.107v1.152c-0.478-0.052-0.922-0.071-1.666-0.071
				h-2.57v2.376h3.314c0.798,0,1.223-0.017,1.613-0.088v1.152c-0.532-0.053-1.028-0.088-1.613-0.088h-7.852
				c-0.567,0-1.081,0.035-1.577,0.088v-1.152c0.389,0.071,0.833,0.088,1.613,0.088h3.439v-2.376H130.851z M131.826,460.034
				c-0.798,0-1.205,0.017-1.772,0.088c0.053-0.408,0.071-0.655,0.071-1.701v-1.488c0-0.887-0.017-1.224-0.071-1.595
				c0.55,0.071,0.993,0.088,1.879,0.088h4.644c0.868,0,1.347-0.017,1.897-0.088c-0.053,0.425-0.072,0.691-0.072,1.72v1.347
				c0,1.045,0,1.276,0.072,1.718c-0.55-0.071-1.064-0.088-1.861-0.088H131.826z M131.188,459.041h6.115v-2.623h-6.115V459.041z"/>
			<path fill="#9FA0A0" d="M153.393,450.942c-0.089,4.235-0.266,6.399-0.691,8.312c-0.319,1.507-0.673,2.5-1.347,3.812
				c-0.337-0.444-0.567-0.656-0.922-0.905c1.4-2.447,1.879-5.655,1.879-12.513c0-0.993-0.018-1.454-0.089-2.022
				c0.673,0.053,1.205,0.071,2.163,0.071h9.341c0.886,0,1.347-0.017,1.86-0.071c-0.035,0.407-0.053,0.727-0.053,1.188v1.027
				c0,0.461,0.017,0.746,0.053,1.153c-0.549-0.036-1.027-0.053-1.772-0.053H153.393z M164.471,450.037v-1.418h-11.078v1.418H164.471
				z M160.129,460.212c0.744-0.071,1.525-0.178,2.109-0.283c-0.266-0.249-0.39-0.373-0.709-0.656l0.727-0.478
				c0.744,0.637,1.4,1.381,2.074,2.303l-0.78,0.585c-0.266-0.461-0.425-0.691-0.709-1.064c-0.39,0.071-0.461,0.088-1.116,0.195
				c-1.134,0.212-3.598,0.496-5.283,0.603c-0.354,0.017-0.532,0.053-0.709,0.088l-0.195-1.064c0.301,0.036,0.496,0.036,0.957,0.036
				c0.727,0,0.727,0,2.641-0.16v-1.666h-4.147v2.837c0,0.78,0.017,1.205,0.071,1.666h-1.241c0.071-0.568,0.088-1.081,0.088-1.773
				v-2.215c0-0.762-0.017-1.134-0.053-1.471c0.461,0.053,0.85,0.071,1.702,0.071h3.58v-1.064h-3.031c-0.762,0-0.975,0-1.418,0.053
				c0.035-0.408,0.053-0.656,0.053-1.064v-0.957c0-0.568,0-0.639-0.053-1.081c0.408,0.052,0.62,0.052,1.471,0.052h2.978v-1.064
				c-1.17,0.09-2.871,0.178-4.378,0.195c-0.124-0.354-0.213-0.532-0.443-0.886c0.478,0.017,0.904,0.017,1.116,0.017
				c3.066,0,6.913-0.39,8.26-0.815l0.762,0.815c-1.896,0.337-2.764,0.461-4.324,0.603v1.134h3.368c0.727,0,1.028-0.017,1.436-0.052
				c-0.053,0.442-0.053,0.513-0.053,1.098v0.939c0,0.568,0,0.71,0.053,1.064c-0.443-0.053-0.673-0.053-1.436-0.053h-3.368v1.064
				h4.183c0.798,0,1.223-0.017,1.702-0.071c-0.053,0.444-0.071,0.905-0.071,1.613v2.464c0,0.478-0.089,0.763-0.301,0.975
				c-0.248,0.249-0.567,0.319-1.436,0.319c-0.478,0-0.939-0.019-1.648-0.053c-0.035-0.408-0.089-0.639-0.213-1.029
				c0.745,0.107,1.294,0.143,1.95,0.143c0.46,0,0.585-0.107,0.585-0.497v-2.978h-4.75V460.212z M159.136,454.523h-3.368v1.364h3.368
				V454.523z M160.129,455.887h3.704v-1.364h-3.704V455.887z"/>
			<path fill="#9FA0A0" d="M186.074,453.601h4.715c0.815,0,1.577-0.053,2.074-0.124v1.347c-0.655-0.088-1.311-0.124-2.074-0.124
				h-4.715v6.753c0,1.224-0.337,1.454-2.074,1.454c-0.674,0-1.17-0.035-1.95-0.105c-0.053-0.461-0.142-0.851-0.283-1.224
				c0.939,0.142,1.79,0.231,2.41,0.231c0.585,0,0.691-0.071,0.691-0.532v-6.577h-5.247c-0.709,0-1.329,0.036-2.003,0.124v-1.347
				c0.762,0.088,1.241,0.124,2.003,0.124h5.247v-4.556h-4.254c-0.868,0-1.4,0.019-1.897,0.09v-1.295
				c0.461,0.071,1.028,0.107,1.897,0.107h9.252c0.887,0,1.4-0.036,1.879-0.107v1.295c-0.496-0.053-1.046-0.09-1.879-0.09h-3.793
				V453.601z"/>
			<path fill="#9FA0A0" d="M215.157,454.186h2.535c0.78,0,1.364-0.036,1.843-0.107v1.293c-0.496-0.071-1.082-0.105-1.843-0.105
				h-2.535v5.37c0,0.939,0.035,1.471,0.124,2.11h-1.418c0.089-0.62,0.124-1.205,0.124-2.093v-5.387h-4.29
				c-0.053,1.718-0.372,3.066-0.975,4.201c-0.727,1.329-1.755,2.233-3.74,3.296c-0.249-0.444-0.479-0.744-0.816-1.046
				c3.191-1.506,4.272-3.101,4.396-6.451h-2.552c-0.727,0-1.277,0.035-1.809,0.105v-1.293c0.479,0.071,1.064,0.107,1.826,0.107h2.57
				c0-0.09,0-0.09,0-0.302v-4.235h-1.719c-0.78,0-1.329,0.035-1.826,0.105v-1.293c0.478,0.071,1.064,0.105,1.808,0.105h10.032
				c0.744,0,1.329-0.035,1.825-0.105v1.293c-0.514-0.071-1.027-0.105-1.825-0.105h-1.737V454.186z M209.733,449.648v4.289
				c0,0.212,0,0.212,0,0.249h4.254v-4.538H209.733z"/>
			<path fill="#9FA0A0" d="M244.151,454.452c-0.124,0.176-0.212,0.337-0.514,0.957c-0.762,1.525-1.702,2.871-2.8,3.988
				c1.665,1.186,3.314,1.932,5.654,2.552c-0.372,0.408-0.514,0.62-0.744,1.117c-2.251-0.763-4.113-1.702-5.743-2.925
				c-1.365,1.098-2.854,1.825-5.991,2.925c-0.195-0.461-0.337-0.675-0.709-1.082c1.577-0.425,3.102-0.991,4.218-1.577
				c0.55-0.285,0.975-0.549,1.577-1.01c-1.241-1.1-2.233-2.34-2.959-3.759c-0.372,1.01-0.887,2.039-1.595,3.12
				c-0.975,1.525-1.986,2.659-3.457,3.864c-0.23-0.408-0.46-0.673-0.868-1.01c1.099-0.744,1.631-1.224,2.499-2.251
				c1.666-1.967,2.659-4.254,3.28-7.551h-2.642c-0.957,0.053-1.542,0.088-1.737,0.088c0.798-1.896,1.099-2.889,1.383-4.643
				l1.222,0.176c-0.301,1.082-0.62,2.093-1.081,3.332h3.031c0.142-0.974,0.283-2.623,0.283-3.172c0-0.16,0-0.285-0.035-0.532
				l1.365,0.105c-0.089,0.319-0.089,0.319-0.177,1.029c-0.106,1.01-0.16,1.542-0.301,2.569h7.001c0.798,0,1.365-0.035,1.86-0.105
				v1.276c-0.408-0.071-0.939-0.107-1.86-0.107l-7.178-0.017c-0.124,0.78-0.213,1.188-0.426,2.003h5.228
				c0.78,0,1.206-0.017,1.578-0.088L244.151,454.452z M236.883,454.823c0.673,1.471,1.648,2.712,3.048,3.881
				c1.134-1.045,1.95-2.233,2.694-3.881H236.883z M243.76,450.339c-0.85-1.1-1.525-1.72-2.641-2.464l0.798-0.673
				c1.116,0.761,1.631,1.222,2.694,2.357L243.76,450.339z"/>
			<path fill="#9FA0A0" d="M266.373,452.537c1.986-1.49,3.793-3.386,4.467-4.698l1.046,0.692c-0.212,0.23-0.319,0.354-0.549,0.637
				c-0.993,1.205-1.79,1.986-3.439,3.369h2.907c0.904,0,1.418-0.036,1.897-0.107v1.224c-0.567-0.072-1.188-0.107-1.95-0.107h-4.183
				c-1.134,0.815-1.861,1.276-2.853,1.879c0.124,0,0.124,0,0.337-0.017c0.425,0,1.099-0.017,1.506-0.017h3.048
				c0.851,0,1.311-0.019,1.932-0.071c-0.071,0.513-0.071,0.92-0.071,1.949v3.97c0,0.887,0.017,1.347,0.089,1.827h-1.223v-0.834
				h-7.321v0.834h-1.241c0.071-0.532,0.106-1.029,0.106-1.827v-3.013c0-0.39,0-0.815,0.018-1.276
				c-0.85,0.461-2.003,0.975-3.474,1.578c-0.195-0.39-0.372-0.675-0.691-1.012c3.208-1.081,5.282-2.091,8.171-3.97h-5.725
				c-0.798,0-1.383,0.035-1.95,0.107v-1.224c0.426,0.071,0.975,0.107,1.967,0.107h4.467v-2.215h-2.854
				c-0.904,0-1.382,0.017-1.914,0.088v-1.171c0.426,0.071,0.975,0.107,1.932,0.107h2.836v-0.62c0-0.763-0.035-1.171-0.106-1.685
				h1.329c-0.089,0.444-0.107,0.887-0.107,1.685v0.62h1.649c0.939,0,1.488-0.036,1.949-0.107v1.171
				c-0.478-0.071-0.939-0.088-1.897-0.088h-1.702v2.215H266.373z M262.013,458.226h7.338v-1.879h-7.338V458.226z M262.013,461.275
				h7.338v-2.093h-7.338V461.275z"/>
			<path fill="#9FA0A0" d="M288.366,449.825c0.886-0.017,1.4-0.035,1.559-0.053c-0.035,0.461-0.053,0.922-0.053,1.561v9.022
				c0,0.798,0.035,1.4,0.088,1.825h-1.17v-1.134h-3.456v1.561h-1.188c0.071-0.461,0.089-1.117,0.089-2.163v-8.985
				c0-0.834-0.018-1.241-0.071-1.685c0.372,0.036,0.691,0.053,1.577,0.053h0.355c0.354-0.868,0.62-1.754,0.762-2.676l1.259,0.249
				c-0.319,0.957-0.638,1.842-0.904,2.428H288.366z M285.335,454.752h3.456V450.8h-3.456V454.752z M285.335,460.051h3.456v-4.324
				h-3.456V460.051z M297.583,449.807c0.709,0,1.205-0.017,1.56-0.071c-0.053,0.319-0.053,0.461-0.072,1.117
				c-0.159,7.019-0.389,9.393-1.027,10.812c-0.355,0.815-0.922,1.134-1.986,1.134c-0.638,0-1.152-0.036-2.251-0.124
				c-0.035-0.514-0.106-0.815-0.301-1.259c1.081,0.212,1.879,0.301,2.517,0.301c0.656,0,0.887-0.159,1.117-0.725
				c0.301-0.817,0.531-2.517,0.655-4.893c0.089-1.418,0.106-2.64,0.124-5.246h-5.105c-0.603,1.223-1.117,2.038-2.038,3.225
				c-0.23-0.302-0.55-0.603-0.851-0.798c1.082-1.152,1.95-2.659,2.605-4.467c0.249-0.673,0.426-1.329,0.461-1.72l1.223,0.231
				c-0.053,0.105-0.142,0.354-0.249,0.673c-0.212,0.62-0.389,1.098-0.673,1.808H297.583z M294.764,458.155
				c-0.992-2.127-1.666-3.244-2.694-4.484l0.904-0.549c1.116,1.347,1.861,2.516,2.801,4.413L294.764,458.155z"/>
			<path fill="#9FA0A0" d="M310.571,450.073c0-0.71,0-0.993-0.053-1.702c0.372,0.036,0.868,0.053,1.613,0.053h1.914
				c0.762,0,1.206-0.017,1.613-0.053c-0.035,0.408-0.053,0.834-0.053,1.649v9.855c0,0.62,0.018,0.974,0.071,1.542h-1.152v-1.01
				h-2.854v1.666h-1.187c0.071-0.603,0.088-1.134,0.088-1.879V450.073z M311.67,453.689h2.854v-4.272h-2.854V453.689z
				 M311.67,459.414h2.854v-4.733h-2.854V459.414z M323.776,461.222c0,1.169-0.372,1.454-1.949,1.454
				c-0.727,0-1.348-0.036-2.163-0.107c-0.053-0.496-0.142-0.762-0.337-1.205c1.081,0.159,1.595,0.212,2.428,0.212
				c0.726,0,0.886-0.071,0.886-0.461v-8.756h-4.431c-0.726,0-1.418,0.036-1.879,0.107v-1.241c0.461,0.071,1.099,0.107,1.843,0.107
				h4.467v-2.039c0-0.832-0.035-1.559-0.124-2.074h1.365c-0.071,0.603-0.106,1.205-0.106,2.074v2.039h0.567
				c0.727,0,1.241-0.036,1.702-0.107v1.205c-0.549-0.053-1.116-0.071-1.683-0.071h-0.585V461.222z M317.98,453.972
				c1.188,1.419,1.809,2.305,2.642,3.83l-0.975,0.708c-0.762-1.595-1.488-2.694-2.552-3.952L317.98,453.972z"/>
			<path fill="#9FA0A0" d="M339.175,455.391c0-0.834,0.017-1.436,0.071-2.198c-0.673,1.152-1.099,1.666-2.304,2.852
				c-0.337-0.603-0.39-0.655-0.744-0.991c1.79-1.649,3.048-3.403,3.988-5.566c0.372-0.868,0.656-1.737,0.762-2.374l1.241,0.442
				c-0.16,0.39-0.16,0.39-0.407,1.029c-0.355,0.939-0.939,2.108-1.471,3.048v9.431c0,0.832,0.035,1.471,0.124,2.108h-1.383
				c0.089-0.603,0.124-1.169,0.124-2.162V455.391z M343.092,453.494c-0.744,0.071-1.223,0.142-1.754,0.266l-0.071-1.276
				c0.159,0.017,0.23,0.017,0.354,0.017c0.39,0,0.887-0.035,1.436-0.088l2.304-0.23c-0.106-0.887-0.195-2.163-0.212-3.103
				c-0.018-0.78-0.053-1.259-0.124-1.613l1.365-0.017c-0.071,0.337-0.089,0.637-0.089,1.169c0,0.975,0.089,2.251,0.23,3.439
				l4.165-0.426c1.011-0.105,1.365-0.159,1.79-0.283l0.106,1.276c-0.16,0-0.23,0-0.319,0c-0.337,0-0.851,0.036-1.454,0.088
				l-4.147,0.426c0.425,2.783,1.116,4.767,2.233,6.452c0.815,1.222,1.702,2.091,2.144,2.091c0.23,0,0.355-0.142,0.496-0.585
				c0.16-0.496,0.283-1.293,0.408-2.34c0.443,0.39,0.709,0.585,1.045,0.762c-0.408,2.571-0.904,3.476-1.86,3.476
				c-1.206,0-2.996-1.932-4.184-4.467c-0.656-1.436-1.134-3.156-1.453-5.283L343.092,453.494z M348.392,447.485
				c1.134,0.886,1.737,1.436,2.854,2.605l-0.851,0.815c-0.727-0.939-1.648-1.842-2.765-2.747L348.392,447.485z"/>
		</g>
	</g>
</g>
</svg>
