<?xml version="1.0" encoding="utf-8"?>
<!-- Generator: Adobe Illustrator 19.0.0, SVG Export Plug-In . SVG Version: 6.00 Build 0)  -->
<svg version="1.1" id="图层_1" xmlns="http://www.w3.org/2000/svg" xmlns:xlink="http://www.w3.org/1999/xlink" x="0px" y="0px"
	 viewBox="-286 378 450.001 270" enable-background="new -286 378 450.001 270" xml:space="preserve">
<g>
	<g>
		<path fill="#0D131A" d="M-198.302,505.132c1.576,1.428,3.842,2.709,6.009,2.709c1.576,0,3.349-0.69,3.349-2.561
			c0-2.069-2.413-2.413-5.123-3.596c-3.054-1.33-5.615-2.955-5.615-6.846c0-5.073,4.088-7.241,9.161-7.241
			c2.758,0,5.714,0.64,7.832,2.02v0.591l-1.97,3.891c-1.379-1.034-3.251-1.724-5.32-1.724c-1.822,0-2.955,0.739-2.955,2.167
			c0,1.872,2.167,2.266,4.876,3.3c3.743,1.428,6.009,3.005,6.009,6.994c0,5.221-4.088,7.487-9.506,7.487
			c-3.448,0-6.206-0.936-8.817-2.906v-0.591L-198.302,505.132z"/>
		<path fill="#0D131A" d="M-169.193,512.323c-8.029,0-11.279-5.566-11.279-12.511c0-6.846,3.005-12.215,10.935-12.215
			c7.635,0,10.344,4.926,10.344,11.329c0,0.739-0.197,2.069-0.493,2.857c-1.872,0-13.348-0.098-13.841-0.098
			c0.049,2.61,1.182,6.058,5.123,6.058c2.019,0,3.694-1.034,5.172-2.61l2.808,3.152v0.591
			C-162.79,510.944-165.548,512.323-169.193,512.323z M-169.538,492.424c-2.413,0-3.793,1.872-3.94,5.763
			c0.542,0,7.388-0.148,7.635-0.148C-165.843,494.345-166.927,492.424-169.538,492.424z"/>
		<path fill="#0D131A" d="M-135.65,492.72v19.948c0,6.797-5.122,9.654-10.738,9.654c-3.152,0-6.551-0.837-9.211-2.413l1.773-4.384
			h0.591c1.773,1.182,3.99,1.97,6.108,1.97c2.906,0,4.531-1.478,4.531-4.039c0-0.394,0.148-2.66,0.246-4.039l-0.197-0.098
			c-1.675,1.527-3.694,2.955-6.452,2.955c-6.748,0-8.373-6.157-8.373-12.462c0-6.157,2.512-12.215,8.521-12.215
			c2.66,0,4.778,1.182,6.551,2.808l0.148-0.099l0.493-1.724l0.542-0.493l5.615,0.148C-135.552,488.73-135.65,491.242-135.65,492.72z
			 M-142.546,494.69c-1.084-1.231-2.561-1.97-3.891-1.97c-3.3,0-3.694,4.433-3.694,7.093c0,2.906,0.148,7.782,3.251,7.782
			c1.379,0,3.103-1.133,4.236-2.561C-142.644,504.541-142.546,495.232-142.546,494.69z"/>
		<path fill="#0D131A" d="M-106.097,511.683c0-0.443,0.197-15.072,0.197-15.515c0-2.463-0.64-3.399-2.167-3.399
			c-1.133,0-2.709,0.64-3.94,1.625c0,0.493,0,16.796,0,17.289h-6.797c0-0.443,0.099-15.072,0.099-15.515
			c0-2.463-0.591-3.399-2.019-3.399c-1.182,0-2.808,0.69-4.039,1.675l0.049,17.239h-6.994v-17.387c0-1.675-0.098-5.024-0.148-6.058
			l5.812-0.148l0.542,0.493l0.345,1.921l0.098,0.049c2.118-1.724,5.073-2.906,7.585-2.906c1.97,0,3.842,0.887,4.778,3.005
			c2.413-1.872,5.517-3.005,8.029-3.005c3.202,0,5.714,1.97,5.714,6.994c0,0.493-0.148,16.55-0.148,17.042H-106.097z"/>
		<path fill="#0D131A" d="M-84.82,512.323c-8.029,0-11.279-5.566-11.279-12.511c0-6.846,3.005-12.215,10.935-12.215
			c7.635,0,10.344,4.926,10.344,11.329c0,0.739-0.197,2.069-0.493,2.857c-1.872,0-13.348-0.098-13.841-0.098
			c0.049,2.61,1.182,6.058,5.123,6.058c2.019,0,3.694-1.034,5.172-2.61l2.808,3.152v0.591
			C-78.416,510.944-81.175,512.323-84.82,512.323z M-85.164,492.424c-2.413,0-3.793,1.872-3.94,5.763
			c0.542,0,7.388-0.148,7.635-0.148C-81.47,494.345-82.554,492.424-85.164,492.424z"/>
		<path fill="#0D131A" d="M-58.764,511.683c0-0.443,0.197-15.072,0.197-15.515c0-2.512-0.591-3.399-2.266-3.399
			c-1.231,0-3.005,0.788-4.335,1.675l0.049,17.239h-6.994v-17.387c0-1.724-0.098-5.024-0.148-6.058l5.812-0.148l0.542,0.493
			l0.345,1.921l0.099,0.049c2.216-1.625,5.418-2.906,8.028-2.906c3.3,0,5.812,1.97,5.812,6.994c0,0.493-0.148,16.55-0.148,17.042
			H-58.764z"/>
		<path fill="#0D131A" d="M-39.949,511.683c-6.157,0-6.6-3.546-6.6-6.994c0-0.492,0-6.896,0.099-11.526
			c-1.527,0.049-2.512,0.049-3.004,0.049l0.049-4.975c0.493,0,1.428,0,2.955,0.049c-0.049-2.709-0.099-6.206-0.099-6.649
			l0.493-0.493h6.502c0,0.443,0,3.399-0.098,7.142c1.724-0.049,4.039-0.049,4.531-0.049l-0.098,4.975c-0.493,0-2.709,0-4.433-0.049
			c0.049,4.482,0.049,10.245,0.049,10.688c0,2.463,0.049,2.955,2.216,2.955h1.921l0.099,4.384l-0.493,0.493H-39.949z"/>
	</g>
	<g>
		<path fill="#030000" d="M-29.286,511.683c0-0.493,0.099-13.89,0.148-18.52c-1.33,0.049-2.709,0.049-3.103,0.049l0.049-4.975
			c0.394,0,1.724,0,3.005,0.049c0-0.197-0.099-4.285-0.099-4.433c0-5.566,3.251-7.635,7.487-7.635c1.822,0,3.694,0.296,5.566,1.084
			v0.739l-1.428,3.94c-0.788-0.443-1.675-0.69-2.463-0.69c-1.379,0-2.266,0.69-2.266,3.3c0,0.887,0.049,3.497,0.049,3.694
			c1.478-0.049,4.285-0.049,4.679-0.049l-0.049,4.975c-0.394,0-3.202,0-4.679-0.049c0.099,4.63,0.099,18.027,0.099,18.52H-29.286z"
			/>
		<path fill="#030000" d="M-1.703,511.683l-0.493-0.493l-0.591-1.872l-0.197-0.049c-2.118,1.921-4.482,3.054-7.388,3.054
			c-5.27,0-6.206-4.531-6.206-7.191c0-7.585,6.502-8.029,13.299-8.423v-1.527c0-2.167-1.428-2.709-3.152-2.709
			c-3.054,0-5.861,0.985-7.536,1.625l-1.527-3.94v-0.591c4.482-1.625,8.373-1.97,11.082-1.97c4.876,0,8.078,2.02,8.078,7.29v11.132
			c0,1.921,0.099,4.679,0.148,5.664H-1.703z M-3.23,500.403c-4.63,0.098-6.649,0.148-6.649,3.842c0,1.724,0.443,3.349,2.315,3.349
			c1.182,0,2.808-0.64,4.285-2.167c0-0.296,0.099-4.679,0.099-4.975L-3.23,500.403z"/>
		<path fill="#030000" d="M22.776,511.683l-0.493-0.493l-0.591-1.97l-0.197-0.049c-2.61,2.463-5.32,3.152-8.029,3.152
			c-3.596,0-6.206-1.97-6.206-6.994c0-0.493,0.148-16.599,0.148-17.092h6.502l0.493,0.493c0,0.542-0.148,14.678-0.148,15.318
			c0,1.773,0.591,3.448,2.364,3.448c1.478,0,3.448-0.985,4.63-2.216l-0.099-17.042h6.502l0.493,0.493v17.289
			c0,1.921,0.099,4.679,0.148,5.664H22.776z"/>
		<path fill="#030000" d="M38.981,506.018c0,1.872,0.099,4.679,0.197,5.664h-6.994c-0.099-0.985-0.197-3.793-0.197-5.664v-23.298
			c0-1.872-0.049-4.679-0.148-5.664l6.649-0.197l0.493,0.493V506.018z"/>
		<path fill="#030000" d="M50.802,511.683c-6.157,0-6.6-3.546-6.6-6.994c0-0.492,0-6.896,0.099-11.526
			c-1.527,0.049-2.512,0.049-3.004,0.049l0.049-4.975c0.493,0,1.428,0,2.955,0.049c-0.049-2.709-0.099-6.206-0.099-6.649
			l0.493-0.493h6.502c0,0.443,0,3.399-0.098,7.142c1.724-0.049,4.039-0.049,4.531-0.049l-0.098,4.975c-0.493,0-2.709,0-4.433-0.049
			c0.049,4.482,0.049,10.245,0.049,10.688c0,2.463,0.049,2.955,2.216,2.955h1.921l0.099,4.384l-0.493,0.493H50.802z"/>
	</g>
</g>
</svg>
